<?xml version="1.0" encoding="UTF-8" standalone="no"?>
<svg
   xmlns:dc="http://purl.org/dc/elements/1.1/"
   xmlns:cc="http://creativecommons.org/ns#"
   xmlns:rdf="http://www.w3.org/1999/02/22-rdf-syntax-ns#"
   xmlns:svg="http://www.w3.org/2000/svg"
   xmlns="http://www.w3.org/2000/svg"
   xmlns:sodipodi="http://sodipodi.sourceforge.net/DTD/sodipodi-0.dtd"
   xmlns:inkscape="http://www.inkscape.org/namespaces/inkscape"
   version="1.1"
   id="svg4368"
   viewBox="0 0 121.875 90.268784"
   height="25.475857mm"
   width="34.395832mm"
   sodipodi:docname="mistserverblue.svg"
   inkscape:version="0.92.2 5c3e80d, 2017-08-06">
  <sodipodi:namedview
     pagecolor="#ffffff"
     bordercolor="#666666"
     borderopacity="1"
     objecttolerance="10"
     gridtolerance="10"
     guidetolerance="10"
     inkscape:pageopacity="0"
     inkscape:pageshadow="2"
     inkscape:window-width="1920"
     inkscape:window-height="995"
     id="namedview23"
     showgrid="false"
     inkscape:zoom="3.4441545"
     inkscape:cx="91.00278"
     inkscape:cy="71.749755"
     inkscape:window-x="0"
     inkscape:window-y="0"
     inkscape:window-maximized="1"
     inkscape:current-layer="svg4368"
     fit-margin-top="0"
     fit-margin-left="0"
     fit-margin-right="0"
     fit-margin-bottom="0" />
  <defs
     id="defs4370" />
  <metadata
     id="metadata4373">
    <rdf:RDF>
      <cc:Work
         rdf:about="">
        <dc:format>image/svg+xml</dc:format>
        <dc:type
           rdf:resource="http://purl.org/dc/dcmitype/StillImage" />
        <dc:title />
      </cc:Work>
    </rdf:RDF>
  </metadata>
  <g
     transform="matrix(0.60179374,0,0,0.60179374,-30.069506,-264.76137)"
     id="g847"
     style="stroke-width:1.55784273">
    <path
       inkscape:connector-curvature="0"
       style="fill:#b5d3e2;fill-opacity:1;fill-rule:nonzero;stroke:none;stroke-width:1.55784273"
       id="path54-7"
       d="m 147.69186,528.8951 5.05228,-3.32212 -49.37108,-75.06356 -5.050441,3.32211 49.369241,75.06357 v 0" />
    <path
       inkscape:connector-curvature="0"
       style="fill:#b5d3e2;fill-opacity:1;fill-rule:nonzero;stroke:none;stroke-width:1.55784273"
       id="path48"
       d="M 234.602,528.24099 H 67.850477 v -6.04541 H 234.602 v 6.04541" />
    <path
       inkscape:connector-curvature="0"
       style="fill:#b5d3e2;fill-opacity:1;fill-rule:nonzero;stroke:none;stroke-width:1.55784273"
       id="path54"
       d="m 154.76084,528.89509 -5.05228,-3.32212 49.37108,-75.06356 5.05043,3.32211 -49.36923,75.06357 v 0" />
    <path
       inkscape:connector-curvature="0"
       style="fill:#b5d3e2;fill-opacity:1;fill-rule:nonzero;stroke:none;stroke-width:1.55784273"
       id="path64"
       d="m 165.20657,526.60296 c 0,7.72396 -6.25913,13.98126 -13.97941,13.98126 -7.72029,0 -13.98126,-6.2573 -13.98126,-13.98126 0,-7.72029 6.26097,-13.97941 13.98126,-13.97941 7.72028,0 13.97941,6.25912 13.97941,13.97941" />
    <path
       inkscape:connector-curvature="0"
       style="fill:#8cb3cf;fill-opacity:1;fill-rule:nonzero;stroke:none;stroke-width:1.55784273"
       id="path70"
       d="m 150.08815,473.69925 51.00726,-23.80203 2.6551,5.42999 -49.49635,25.31477" />
    <path
       inkscape:connector-curvature="0"
       style="fill:#8cb3cf;fill-opacity:1;fill-rule:nonzero;stroke:none;stroke-width:1.55784273"
       id="path46"
       d="M 70.198071,524.45454 151.2267,567.71942 232.25275,524.45454 201.74568,455.4456 H 100.70661 Z M 151.2267,574.57186 62.400222,527.14098 96.76964,449.40019 H 205.6832 l 34.36905,77.74079 -88.82555,47.43088 v 0" />
    <path
       inkscape:connector-curvature="0"
       style="fill:#8cb3cf;fill-opacity:1;fill-rule:nonzero;stroke:none;stroke-width:1.55784273"
       id="path50"
       d="m 84.726929,525.72222 c 0,9.59968 -7.78108,17.38075 -17.379651,17.38075 -9.599122,0 -17.381124,-7.78106 -17.381124,-17.38075 0,-9.59784 7.782002,-17.38076 17.381124,-17.38076 9.598571,0 17.379651,7.78292 17.379651,17.38076" />
    <path
       inkscape:connector-curvature="0"
       style="fill:#8cb3cf;fill-opacity:1;fill-rule:nonzero;stroke:none;stroke-width:1.55784273"
       id="path52"
       d="m 252.48632,525.72222 c 0,9.59968 -7.78107,17.38075 -17.38074,17.38075 -9.59968,0 -17.37892,-7.78106 -17.37892,-17.38075 0,-9.59784 7.77924,-17.38076 17.37892,-17.38076 9.59967,0 17.38074,7.78292 17.38074,17.38076" />
    <path
       inkscape:connector-curvature="0"
       style="fill:#8cb3cf;fill-opacity:1;fill-rule:nonzero;stroke:none;stroke-width:1.55784273"
       id="path58"
       d="m 215.45866,452.79969 c 0,7.0975 -5.75242,12.8481 -12.84624,12.8481 -7.09565,0 -12.84625,-5.7506 -12.84625,-12.8481 0,-7.09381 5.7506,-12.84625 12.84625,-12.84625 7.09382,0 12.84624,5.75244 12.84624,12.84625" />
    <path
       inkscape:connector-curvature="0"
       style="fill:#8cb3cf;fill-opacity:1;fill-rule:nonzero;stroke:none;stroke-width:1.55784273"
       id="path60"
       d="m 112.68722,452.79969 c 0,7.0975 -5.75133,12.8481 -12.84587,12.8481 -7.095288,0 -12.847536,-5.7506 -12.847536,-12.8481 0,-7.09381 5.752247,-12.84625 12.847535,-12.84625 7.094541,0 12.845871,5.75244 12.845871,12.84625" />
    <path
       inkscape:connector-curvature="0"
       style="fill:#8cb3cf;fill-opacity:1;fill-rule:nonzero;stroke:none;stroke-width:1.55784273"
       id="path62"
       d="m 168.22835,477.73675 c 0,9.39145 -7.61157,17.00487 -17.00119,17.00487 -9.38963,0 -17.00304,-7.61342 -17.00304,-17.00487 0,-9.38962 7.61341,-17.0012 17.00304,-17.0012 9.38962,0 17.00119,7.61158 17.00119,17.0012" />
    <path
       inkscape:connector-curvature="0"
       style="fill:#8cb3cf;fill-opacity:1;fill-rule:nonzero;stroke:none;stroke-width:1.55784273"
       id="path72"
       d="m 233.57896,529.08671 -83.88016,-47.98547 4.56768,-6.72714 82.36743,49.49637 -3.05495,5.21624 v 0" />
    <path
       inkscape:connector-curvature="0"
       style="fill:#8cb3cf;fill-opacity:1;fill-rule:nonzero;stroke:none;stroke-width:1.55784273"
       id="path76"
       d="m 168.60607,572.57453 c 0,9.59968 -7.78107,17.37891 -17.38075,17.37891 -9.59784,0 -17.37891,-7.77923 -17.37891,-17.37891 0,-9.59968 7.78107,-17.38076 17.37891,-17.38076 9.59968,0 17.38075,7.78108 17.38075,17.38076" />
    <path
       inkscape:connector-curvature="0"
       style="fill:#8cb3cf;fill-opacity:1;fill-rule:nonzero;stroke:none;stroke-width:1.55784273"
       id="path72-5"
       d="m 68.873783,529.0867 83.880167,-47.98547 -4.56768,-6.72714 -82.367437,49.49637 3.05495,5.21624 v 0" />
    <path
       inkscape:connector-curvature="0"
       style="fill:#8cb3cf;fill-opacity:1;fill-rule:nonzero;stroke:none;stroke-width:1.55784273"
       id="path70-3"
       d="m 152.36456,473.69925 -51.00726,-23.80203 -2.655101,5.42999 49.496351,25.31477" />
    <rect
       y="483.39197"
       x="147.35124"
       height="95"
       width="7.75"
       id="rect1151"
       style="opacity:1;vector-effect:none;fill:#8cb3cf;fill-opacity:1;stroke:none;stroke-width:2.07712364;stroke-linecap:butt;stroke-linejoin:miter;stroke-miterlimit:4;stroke-dasharray:none;stroke-dashoffset:0;stroke-opacity:1" />
  </g>
</svg>
