<?xml version="1.0" encoding="UTF-8" standalone="no"?>
<svg
   width="542.50098pt"
   height="542.50592pt"
   version="1.1"
   viewBox="0 0 542.50098 542.50592"
   id="svg99"
   sodipodi:docname="noun-setup-1962776.svg"
   inkscape:export-filename="noun-setup-1962776.png"
   inkscape:export-xdpi="96"
   inkscape:export-ydpi="96"
   xmlns:inkscape="http://www.inkscape.org/namespaces/inkscape"
   xmlns:sodipodi="http://sodipodi.sourceforge.net/DTD/sodipodi-0.dtd"
   xmlns="http://www.w3.org/2000/svg"
   xmlns:svg="http://www.w3.org/2000/svg">
  <sodipodi:namedview
     id="namedview101"
     pagecolor="#505050"
     bordercolor="#ffffff"
     borderopacity="1"
     inkscape:showpageshadow="0"
     inkscape:pageopacity="0"
     inkscape:pagecheckerboard="1"
     inkscape:deskcolor="#505050"
     inkscape:document-units="pt"
     showgrid="false" />
  <defs
     id="defs41" />
  <g
     id="g97"
     transform="translate(-78.74916,-8.74648)">
    <path
       d="m 446.66,312.04 c 0.18359,-0.42969 0.35938,-0.85938 0.53516,-1.2773 l 25.305,-6.4766 v -15.539 h 70 c 43.418,0 78.75,-35.324 78.75,-78.75 0,-43.426 -35.332,-78.75 -78.75,-78.75 -3.7266,0 -7.4102,0.33984 -11.051,0.85938 -12.152,-70.938 -73.438,-123.36 -146.45,-123.36 -60,0 -113.9,36.215 -136.98,91.043 -6.5625,-2.3281 -13.52,-3.543 -20.52,-3.543 -24.289,0 -46.156,14.672 -55.867,36.434 -4.6289,-0.83984 -9.3281,-1.4336 -14.133,-1.4336 -43.418,0 -78.75,35.324 -78.75,78.75 0,43.426 35.332,78.75 78.75,78.75 h 70 v 15.539 l 25.312,6.4648 c 0.17578,0.42969 0.35156,0.85938 0.53516,1.2773 l -13.328,22.461 46.734,46.727 22.461,-13.316 c 0.42969,0.18359 0.85938,0.35938 1.2773,0.53516 l 6.4609,25.312 h 66.098 l 6.457,-25.312 c 0.42969,-0.17578 0.85938,-0.35156 1.2773,-0.53516 l 22.461,13.316 46.734,-46.727 z M 157.5,271.247 c -33.773,0 -61.25,-27.484 -61.25,-61.25 0,-33.766 27.477,-61.25 61.25,-61.25 22.25,0 42.797,12.109 53.602,31.586 l 15.305,-8.4961 c -8.6172,-15.523 -22.059,-27.387 -37.836,-34.168 7.3672,-14.375 22.367,-23.922 38.93,-23.922 7.375,0 14.691,1.8906 21.141,5.4531 l 9.0898,5.0234 3.4141,-9.8086 c 18.34,-52.73 68.117,-88.168 123.86,-88.168 64.891,0 119.25,46.918 129.43,110.17 -8.7422,3.332 -16.887,8.2148 -24.02,14.516 l 11.586,13.125 c 11.176,-9.8789 25.559,-15.312 40.504,-15.312 33.773,0 61.25,27.484 61.25,61.25 0,33.766 -27.477,61.25 -61.25,61.25 h -70 v -33.039 l -25.312,-6.4648 c -0.17578,-0.42969 -0.35156,-0.85938 -0.53516,-1.2773 l 13.328,-22.461 -46.734,-46.727 -22.461,13.316 c -0.42969,-0.18359 -0.85938,-0.35938 -1.2773,-0.53516 l -6.4609,-25.312 h -66.098 l -6.457,25.312 c -0.42969,0.17578 -0.85938,0.35156 -1.2773,0.53516 l -22.461,-13.316 -46.734,46.727 13.328,22.461 c -0.18359,0.42969 -0.35938,0.85938 -0.53516,1.2773 l -25.312,6.4648 v 33.039 z m 253,88.008 -18.707,-11.105 -4.2188,2.0117 c -2.7031,1.2852 -5.4766,2.4492 -8.3281,3.457 l -4.4102,1.5586 -5.3789,21.07 h -38.902 l -5.3711,-21.07 -4.4102,-1.5586 c -2.8516,-0.99609 -5.625,-2.1602 -8.3281,-3.457 l -4.2188,-2.0117 -18.707,11.105 -27.512,-27.52 11.094,-18.699 -2.0117,-4.207 c -1.2969,-2.7227 -2.4492,-5.5039 -3.4648,-8.3555 l -1.5586,-4.3906 -21.062,-5.375 v -38.91 l 21.051,-5.3711 1.5586,-4.4023 c 1.0156,-2.8516 2.1719,-5.6367 3.4648,-8.3477 l 2.0117,-4.207 -11.094,-18.699 27.512,-27.52 18.707,11.105 4.2188,-2.0117 c 2.7031,-1.2852 5.4766,-2.4492 8.3281,-3.457 l 4.4102,-1.5586 5.3789,-21.082 h 38.902 l 5.3711,21.07 4.4102,1.5586 c 2.8516,0.99609 5.625,2.1602 8.3281,3.457 l 4.2188,2.0117 18.707,-11.105 27.512,27.52 -11.094,18.699 2.0117,4.207 c 1.2969,2.7227 2.4492,5.4961 3.4648,8.3477 l 1.5586,4.4023 21.062,5.3711 v 38.91 l -21.051,5.3711 -1.5586,4.3906 c -1.0234,2.8516 -2.1797,5.6445 -3.4648,8.3555 l -2.0117,4.207 11.094,18.699 z"
       id="path43" />
    <path
       d="m 350,201.25 c -38.598,0 -70,31.402 -70,70 0,38.598 31.402,70 70,70 38.598,0 70,-31.402 70,-70 0,-38.598 -31.402,-70 -70,-70 z m 0,122.5 c -28.953,0 -52.5,-23.547 -52.5,-52.5 0,-28.953 23.547,-52.5 52.5,-52.5 28.953,0 52.5,23.547 52.5,52.5 0,28.953 -23.547,52.5 -52.5,52.5 z"
       id="path45" />
    <path
       d="m 350,236.25 c -19.301,0 -35,15.699 -35,35 0,19.301 15.699,35 35,35 19.301,0 35,-15.699 35,-35 0,-19.301 -15.699,-35 -35,-35 z m 0,52.5 c -9.6523,0 -17.5,-7.8477 -17.5,-17.5 0,-9.6523 7.8477,-17.5 17.5,-17.5 9.6523,0 17.5,7.8477 17.5,17.5 0,9.6523 -7.8477,17.5 -17.5,17.5 z"
       id="path47" />
    <path
       d="m 259.89,403.78 -33.672,-33.672 -20.246,10.125 -7.1641,-21.48 h -47.617 l -7.168,21.48 -20.246,-10.125 -33.672,33.672 10.133,20.258 -21.488,7.1562 v 47.609 l 21.488,7.1562 -10.133,20.258 33.672,33.672 20.246,-10.125 7.168,21.488 h 47.609 l 7.168,-21.48 20.246,10.125 33.672,-33.672 -10.133,-20.258 21.496,-7.1562 v -47.609 l -21.488,-7.1562 z m -6.1406,40.031 v 22.391 l -20.109,6.7031 -1.4688,3.8945 c -0.42188,1.1094 -0.85938,2.2031 -1.3398,3.2812 l -1.6992,3.7891 9.457,18.918 -15.828,15.828 -18.918,-9.457 -3.7891,1.6992 c -1.0938,0.48828 -2.1953,0.91797 -3.3164,1.3555 l -3.8594,1.4805 -6.6875,20.059 h -22.391 l -6.6953,-20.074 -3.8594,-1.4805 c -1.1211,-0.4375 -2.2305,-0.875 -3.3164,-1.3555 l -3.7891,-1.6992 -18.918,9.457 -15.828,-15.824 9.457,-18.918 -1.6992,-3.7891 c -0.48047,-1.0781 -0.91797,-2.1719 -1.3398,-3.2812 l -1.4688,-3.8945 -20.094,-6.6992 v -22.391 l 20.109,-6.7031 1.4688,-3.8945 c 0.42188,-1.1094 0.85938,-2.2031 1.3398,-3.2812 l 1.6992,-3.7891 -9.4727,-18.906 15.828,-15.828 18.918,9.457 3.7891,-1.6992 c 1.0938,-0.48828 2.1953,-0.91797 3.3164,-1.3555 l 3.8594,-1.4805 6.7031,-20.07 h 22.391 l 6.6953,20.074 3.8594,1.4805 c 1.1211,0.4375 2.2305,0.875 3.3164,1.3555 l 3.7891,1.6992 18.918,-9.457 15.828,15.828 -9.457,18.918 1.6992,3.7891 c 0.48047,1.0781 0.91797,2.1719 1.3398,3.2812 l 1.4688,3.8945 z"
       id="path49" />
    <path
       d="m 175,411.25 c -24.125,0 -43.75,19.625 -43.75,43.75 0,24.125 19.625,43.75 43.75,43.75 24.125,0 43.75,-19.625 43.75,-43.75 0,-24.125 -19.625,-43.75 -43.75,-43.75 z m 0,70 c -14.473,0 -26.25,-11.777 -26.25,-26.25 0,-14.473 11.777,-26.25 26.25,-26.25 14.473,0 26.25,11.777 26.25,26.25 0,14.473 -11.777,26.25 -26.25,26.25 z"
       id="path51" />
    <path
       d="m 609.89,403.78 -33.672,-33.672 -20.246,10.125 -7.1641,-21.48 h -47.609 l -7.168,21.48 -20.246,-10.125 -33.672,33.672 10.133,20.258 -21.496,7.1562 v 47.609 l 21.488,7.1562 -10.133,20.258 33.672,33.672 20.246,-10.125 7.168,21.488 h 47.609 l 7.168,-21.48 20.246,10.125 33.672,-33.672 -10.133,-20.258 21.496,-7.1562 v -47.609 l -21.488,-7.1562 z m -6.1406,40.031 v 22.391 l -20.109,6.7031 -1.4688,3.8945 c -0.42188,1.1094 -0.85938,2.2031 -1.3398,3.2812 l -1.6992,3.7891 9.457,18.918 -15.828,15.828 -18.918,-9.457 -3.7891,1.6992 c -1.0938,0.48828 -2.1953,0.91797 -3.3164,1.3555 l -3.8594,1.4805 -6.6875,20.059 h -22.391 l -6.6953,-20.074 -3.8594,-1.4805 c -1.1211,-0.4375 -2.2305,-0.875 -3.3164,-1.3555 l -3.7891,-1.6992 -18.918,9.457 -15.828,-15.828 9.457,-18.918 -1.6992,-3.7891 c -0.48047,-1.0781 -0.91797,-2.1719 -1.3398,-3.2812 l -1.4688,-3.8945 -20.094,-6.6953 v -22.391 l 20.109,-6.7031 1.4688,-3.8945 c 0.42188,-1.1094 0.85938,-2.2031 1.3398,-3.2812 l 1.6992,-3.7891 -9.457,-18.918 15.828,-15.828 18.918,9.457 3.7891,-1.6992 c 1.0938,-0.48828 2.1953,-0.91797 3.3164,-1.3555 l 3.8594,-1.4805 6.6875,-20.059 h 22.391 l 6.6953,20.074 3.8594,1.4805 c 1.1211,0.4375 2.2305,0.875 3.3164,1.3555 l 3.7891,1.6992 18.918,-9.457 15.828,15.828 -9.457,18.918 1.6992,3.7891 c 0.48047,1.0781 0.91797,2.1719 1.3398,3.2812 l 1.4688,3.8945 z"
       id="path53" />
    <path
       d="m 525,411.25 c -24.125,0 -43.75,19.625 -43.75,43.75 0,24.125 19.625,43.75 43.75,43.75 24.125,0 43.75,-19.625 43.75,-43.75 0,-24.125 -19.625,-43.75 -43.75,-43.75 z m 0,70 c -14.473,0 -26.25,-11.777 -26.25,-26.25 0,-14.473 11.777,-26.25 26.25,-26.25 14.473,0 26.25,11.777 26.25,26.25 0,14.473 -11.777,26.25 -26.25,26.25 z"
       id="path55" />
    <path
       d="m 498.75,306.25 h 17.5 v 35 h -17.5 z"
       id="path57" />
    <path
       d="m 533.75,306.25 h 17.5 v 35 h -17.5 z"
       id="path59" />
    <path
       d="m 148.75,306.25 h 17.5 v 35 h -17.5 z"
       id="path61" />
    <path
       d="m 183.75,306.25 h 17.5 v 35 h -17.5 z"
       id="path63" />
  </g>
</svg>
